<svg width="86" height="86" viewBox="0 0 86 86" fill="none" xmlns="http://www.w3.org/2000/svg">
<g filter="url(#filter0_d_3281_1095)">
<path d="M56.5068 59.2C54.5021 53.0031 50.6253 49.163 45.4873 44.7279C50.345 40.8509 56.5019 38.5333 63.2002 38.5333V17.8667H65.8047C67.2199 17.8667 68.3669 19.0161 68.3669 20.433V61.8004C68.3669 63.2176 67.1907 64.3667 65.8047 64.3667H19.2623C17.8473 64.3667 16.7002 63.2174 16.7002 61.8004V20.433C16.7002 19.0156 17.8764 17.8667 19.2623 17.8667H27.0335V12.7H32.2002V23.0333H21.8669V41.1167C35.3523 41.1167 46.8265 47.4758 51.0913 59.2H56.5068ZM58.0335 12.7V23.0333H37.3669V17.8667H52.8669V12.7H58.0335ZM54.1585 35.95C52.0185 35.95 50.2835 34.2151 50.2835 32.075C50.2835 29.9349 52.0185 28.2 54.1585 28.2C56.2986 28.2 58.0335 29.9349 58.0335 32.075C58.0335 34.2151 56.2986 35.95 54.1585 35.95Z" fill="white"/>
</g>
<defs>
<filter id="filter0_d_3281_1095" x="-5.16631" y="-2.5833" width="95.4" height="95.4" filterUnits="userSpaceOnUse" color-interpolation-filters="sRGB">
<feFlood flood-opacity="0" result="BackgroundImageFix"/>
<feColorMatrix in="SourceAlpha" type="matrix" values="0 0 0 0 0 0 0 0 0 0 0 0 0 0 0 0 0 0 127 0" result="hardAlpha"/>
<feOffset dy="4"/>
<feGaussianBlur stdDeviation="8.35"/>
<feComposite in2="hardAlpha" operator="out"/>
<feColorMatrix type="matrix" values="0 0 0 0 0 0 0 0 0 0 0 0 0 0 0 0 0 0 0.25 0"/>
<feBlend mode="normal" in2="BackgroundImageFix" result="effect1_dropShadow_3281_1095"/>
<feBlend mode="normal" in="SourceGraphic" in2="effect1_dropShadow_3281_1095" result="shape"/>
</filter>
</defs>
</svg>
