<svg width="52" height="32" viewBox="0 0 52 32" fill="none" xmlns="http://www.w3.org/2000/svg">
<rect width="52" height="32" rx="5" fill="#002AFF"/>
<path d="M20.9998 7.66667C25.6022 7.66667 29.3332 11.3976 29.3332 16C29.3332 20.6023 25.6022 24.3333 20.9998 24.3333C16.3975 24.3333 12.6665 20.6023 12.6665 16H14.3332C14.3332 19.6819 17.3179 22.6667 20.9998 22.6667C24.6818 22.6667 27.6665 19.6819 27.6665 16C27.6665 12.3181 24.6818 9.33334 20.9998 9.33334C18.9466 9.33334 17.1102 10.2615 15.8873 11.7212L17.6665 13.5H12.6665V8.50001L14.7053 10.5387C16.2332 8.77925 18.4866 7.66667 20.9998 7.66667ZM21.8332 11.8333L21.833 15.6542L24.5353 18.357L23.3568 19.5355L20.1663 16.3442L20.1665 11.8333H21.8332Z" fill="white"/>
<path d="M36.4999 16.2321L39.5936 13.1385L40.4774 14.0224L36.4999 17.9999L32.5225 14.0224L33.4063 13.1385L36.4999 16.2321Z" fill="white"/>
</svg>
