<svg width="20" height="20" viewBox="0 0 20 20" fill="none" xmlns="http://www.w3.org/2000/svg">
<path d="M15.8333 14.1666H17.5C18 14.1666 18.3333 13.8333 18.3333 13.3333V10.8333C18.3333 10.0833 17.75 9.41665 17.0833 9.24998C15.5833 8.83331 13.3333 8.33331 13.3333 8.33331C13.3333 8.33331 12.25 7.16665 11.5 6.41665C11.0833 6.08331 10.5833 5.83331 9.99996 5.83331H4.16663C3.66663 5.83331 3.24996 6.16665 2.99996 6.58331L1.83329 8.99998C1.72294 9.32183 1.66663 9.65973 1.66663 9.99998V13.3333C1.66663 13.8333 1.99996 14.1666 2.49996 14.1666H4.16663" stroke="#10B981" stroke-width="1.66667" stroke-linecap="round" stroke-linejoin="round"/>
<path d="M5.83329 15.8333C6.75377 15.8333 7.49996 15.0871 7.49996 14.1667C7.49996 13.2462 6.75377 12.5 5.83329 12.5C4.91282 12.5 4.16663 13.2462 4.16663 14.1667C4.16663 15.0871 4.91282 15.8333 5.83329 15.8333Z" stroke="#10B981" stroke-width="1.66667" stroke-linecap="round" stroke-linejoin="round"/>
<path d="M7.5 14.1667H12.5" stroke="#10B981" stroke-width="1.66667" stroke-linecap="round" stroke-linejoin="round"/>
<path d="M14.1667 15.8333C15.0871 15.8333 15.8333 15.0871 15.8333 14.1667C15.8333 13.2462 15.0871 12.5 14.1667 12.5C13.2462 12.5 12.5 13.2462 12.5 14.1667C12.5 15.0871 13.2462 15.8333 14.1667 15.8333Z" stroke="#10B981" stroke-width="1.66667" stroke-linecap="round" stroke-linejoin="round"/>
</svg>
