<svg width="20" height="20" viewBox="0 0 20 20" fill="none" xmlns="http://www.w3.org/2000/svg">
<path d="M8.33337 18.3333V12.8583" stroke="#8B5CF6" stroke-width="1.66667" stroke-linecap="round" stroke-linejoin="round"/>
<path d="M10 9.16669H10.0083" stroke="#8B5CF6" stroke-width="1.66667" stroke-linecap="round" stroke-linejoin="round"/>
<path d="M10 5.83331H10.0083" stroke="#8B5CF6" stroke-width="1.66667" stroke-linecap="round" stroke-linejoin="round"/>
<path d="M11.6666 12.8583V18.3333" stroke="#8B5CF6" stroke-width="1.66667" stroke-linecap="round" stroke-linejoin="round"/>
<path d="M12.5 13.3333C11.7788 12.7924 10.9015 12.5 10 12.5C9.09846 12.5 8.22123 12.7924 7.5 13.3333" stroke="#8B5CF6" stroke-width="1.66667" stroke-linecap="round" stroke-linejoin="round"/>
<path d="M13.3334 9.16669H13.3417" stroke="#8B5CF6" stroke-width="1.66667" stroke-linecap="round" stroke-linejoin="round"/>
<path d="M13.3334 5.83331H13.3417" stroke="#8B5CF6" stroke-width="1.66667" stroke-linecap="round" stroke-linejoin="round"/>
<path d="M6.66663 9.16669H6.67496" stroke="#8B5CF6" stroke-width="1.66667" stroke-linecap="round" stroke-linejoin="round"/>
<path d="M6.66663 5.83331H6.67496" stroke="#8B5CF6" stroke-width="1.66667" stroke-linecap="round" stroke-linejoin="round"/>
<path d="M15 1.66669H5.00004C4.07957 1.66669 3.33337 2.41288 3.33337 3.33335V16.6667C3.33337 17.5872 4.07957 18.3334 5.00004 18.3334H15C15.9205 18.3334 16.6667 17.5872 16.6667 16.6667V3.33335C16.6667 2.41288 15.9205 1.66669 15 1.66669Z" stroke="#8B5CF6" stroke-width="1.66667" stroke-linecap="round" stroke-linejoin="round"/>
</svg>
