<svg width="141" height="112" viewBox="0 0 141 112" fill="none" xmlns="http://www.w3.org/2000/svg">
<g filter="url(#filter0_d_2695_23952)">
<mask id="path-1-inside-1_2695_23952" fill="white">
<path d="M38 23C38 17.4772 42.4772 13 48 13H93C98.5228 13 103 17.4772 103 23V39C103 44.5228 98.5228 49 93 49H48C42.4772 49 38 44.5228 38 39V23Z"/>
</mask>
<path d="M38 23C38 17.4772 42.4772 13 48 13H93C98.5228 13 103 17.4772 103 23V39C103 44.5228 98.5228 49 93 49H48C42.4772 49 38 44.5228 38 39V23Z" fill="white" fill-opacity="0.1" shape-rendering="crispEdges"/>
<path d="M48 13V13.5H93V13V12.5H48V13ZM103 23H102.5V39H103H103.5V23H103ZM93 49V48.5H48V49V49.5H93V49ZM38 39H38.5V23H38H37.5V39H38ZM48 49V48.5C42.7533 48.5 38.5 44.2467 38.5 39H38H37.5C37.5 44.799 42.201 49.5 48 49.5V49ZM103 39H102.5C102.5 44.2467 98.2467 48.5 93 48.5V49V49.5C98.799 49.5 103.5 44.799 103.5 39H103ZM93 13V13.5C98.2467 13.5 102.5 17.7533 102.5 23H103H103.5C103.5 17.201 98.799 12.5 93 12.5V13ZM48 13V12.5C42.201 12.5 37.5 17.201 37.5 23H38H38.5C38.5 17.7533 42.7533 13.5 48 13.5V13Z" fill="url(#paint0_linear_2695_23952)" mask="url(#path-1-inside-1_2695_23952)"/>
<rect x="38" y="13" width="65" height="36" rx="10" fill="url(#paint1_linear_2695_23952)"/>
<rect width="30" height="1" transform="translate(55 13)" fill="url(#paint2_linear_2695_23952)"/>
</g>
<circle cx="60" cy="31" r="3.5" stroke="url(#paint3_linear_2695_23952)"/>
<circle cx="70" cy="31" r="3.5" stroke="url(#paint4_linear_2695_23952)"/>
<circle cx="80" cy="31" r="3.5" fill="#002AFF" stroke="url(#paint5_linear_2695_23952)"/>
<defs>
<filter id="filter0_d_2695_23952" x="0" y="0" width="141" height="112" filterUnits="userSpaceOnUse" color-interpolation-filters="sRGB">
<feFlood flood-opacity="0" result="BackgroundImageFix"/>
<feColorMatrix in="SourceAlpha" type="matrix" values="0 0 0 0 0 0 0 0 0 0 0 0 0 0 0 0 0 0 127 0" result="hardAlpha"/>
<feMorphology radius="12" operator="erode" in="SourceAlpha" result="effect1_dropShadow_2695_23952"/>
<feOffset dy="25"/>
<feGaussianBlur stdDeviation="25"/>
<feComposite in2="hardAlpha" operator="out"/>
<feColorMatrix type="matrix" values="0 0 0 0 0 0 0 0 0 0 0 0 0 0 0 0 0 0 0.4 0"/>
<feBlend mode="normal" in2="BackgroundImageFix" result="effect1_dropShadow_2695_23952"/>
<feBlend mode="normal" in="SourceGraphic" in2="effect1_dropShadow_2695_23952" result="shape"/>
</filter>
<linearGradient id="paint0_linear_2695_23952" x1="70.5" y1="13" x2="70.5" y2="49" gradientUnits="userSpaceOnUse">
<stop stop-color="#002AFF"/>
<stop offset="0.596154" stop-color="#77F2F6"/>
</linearGradient>
<linearGradient id="paint1_linear_2695_23952" x1="38" y1="13" x2="68.5162" y2="68.0987" gradientUnits="userSpaceOnUse">
<stop stop-color="#77F2F6" stop-opacity="0.2"/>
<stop offset="1" stop-color="#3D3D3D" stop-opacity="0"/>
</linearGradient>
<linearGradient id="paint2_linear_2695_23952" x1="0" y1="0.5" x2="30" y2="0.5" gradientUnits="userSpaceOnUse">
<stop stop-opacity="0"/>
<stop offset="0.5" stop-color="white" stop-opacity="0.4"/>
<stop offset="1" stop-opacity="0"/>
</linearGradient>
<linearGradient id="paint3_linear_2695_23952" x1="60" y1="27" x2="60" y2="35" gradientUnits="userSpaceOnUse">
<stop stop-color="#002AFF"/>
<stop offset="1" stop-color="#77F2F6"/>
</linearGradient>
<linearGradient id="paint4_linear_2695_23952" x1="70" y1="27" x2="70" y2="35" gradientUnits="userSpaceOnUse">
<stop stop-color="#002AFF"/>
<stop offset="1" stop-color="#77F2F6"/>
</linearGradient>
<linearGradient id="paint5_linear_2695_23952" x1="80" y1="27" x2="80" y2="35" gradientUnits="userSpaceOnUse">
<stop stop-color="#002AFF"/>
<stop offset="1" stop-color="#77F2F6"/>
</linearGradient>
</defs>
</svg>
