<?xml version="1.0" encoding="UTF-8"?>
<svg id="Layer_2" data-name="Layer 2" xmlns="http://www.w3.org/2000/svg" viewBox="0 0 220.19 74.3">
  <defs>
    <style>
      .cls-1 {
        fill: #333;
      }

      .cls-1, .cls-2 {
        stroke-width: 0px;
      }

      .cls-3 {
        fill: #231f20;
        font-family: Poppins-ExtraLight, Poppins;
        font-size: 20px;
        font-weight: 200;
        letter-spacing: .82em;
      }

      .cls-2 {
        fill: #ec2027;
      }
    </style>
  </defs>
  <g id="Layer_1-2" data-name="Layer 1">
    <g>
      <path class="cls-1" d="M7.14.57v27.75c0,3.3.87,5.78,2.6,7.45,1.73,1.67,4.14,2.51,7.24,2.51s5.56-.83,7.3-2.51c1.73-1.67,2.6-4.16,2.6-7.45V.57h7.14v27.63c0,3.55-.77,6.56-2.32,9.02-1.55,2.46-3.61,4.3-6.2,5.51-2.59,1.21-5.45,1.82-8.58,1.82s-5.98-.6-8.55-1.82c-2.57-1.21-4.6-3.05-6.11-5.51-1.5-2.46-2.26-5.47-2.26-9.02V.57h7.14Z"/>
      <path class="cls-1" d="M140.62,23.19c-.13,3.89-1.11,7.4-2.93,10.54-1.96,3.41-4.64,6.06-8.05,7.96-3.4,1.9-7.15,2.85-11.24,2.85s-7.78-.95-11.18-2.85c-2.45-1.36-4.52-3.11-6.22-5.25-.68-.84-1.3-1.75-1.86-2.71-1.05-1.79-1.82-3.7-2.31-5.73-.17-.66-.3-1.33-.4-2.01-.18-1.21-.27-2.46-.27-3.75,0-1.4.11-2.74.32-4.04.44-2.68,1.32-5.15,2.66-7.43,1.98-3.38,4.67-6.02,8.08-7.92,3.4-1.9,7.13-2.85,11.18-2.85s7.84.95,11.24,2.85c2.58,1.44,4.73,3.29,6.46,5.57l-6.42,2.79c-1-1.21-2.2-2.21-3.57-3-2.26-1.3-4.83-1.95-7.71-1.95s-5.45.65-7.71,1.95c-2.25,1.29-4.02,3.15-5.29,5.57-.87,1.66-1.45,3.51-1.71,5.54-.14.93-.2,1.91-.2,2.92,0,2.75.47,5.21,1.4,7.4.15.37.33.73.51,1.09.29.55.6,1.07.93,1.56h.01c.49.73,1.03,1.38,1.63,1.97.81.82,1.72,1.52,2.72,2.11,2.26,1.31,4.83,1.97,7.71,1.97s5.45-.66,7.71-1.97c2.25-1.32,4.01-3.2,5.29-5.64.67-1.29,1.16-2.67,1.47-4.17l7.75-3.37Z"/>
      <path class="cls-1" d="M209.23,35.21h-18.23l-3.13,8.9h-7.46L196.01.51h8.27l15.6,43.6h-7.52l-3.13-8.9ZM207.23,29.38l-7.08-20.23-7.14,20.23h14.22Z"/>
      <path class="cls-2" d="M170.9,2.98c-2.32,2.68-5.28,4.56-8.16,6.52-6.24,4.25-13.02,7.53-19.75,10.89-.77.38-1.58.43-2.39.41-.52-.01-1.04-.05-1.54-.05-1.94,0-3.88-.04-5.81-.1-5.8-.17-11.6-.58-17.44-1.41,2.16-.94,4.32-1.89,6.49-2.82,2.83-1.22,5.65-2.47,8.47-3.72,2.12-.95,4.23-1.9,6.35-2.84,4.71-2.09,9.44-4.14,14.24-6.02,4.37-1.72,8.79-3.38,13.55-3.77,1.98-.17,3.9-.08,5.67,1,.88.54,1.11,1,.32,1.91Z"/>
      <path class="cls-2" d="M139.52,21.88c-2.01.83-4.01,1.67-6.03,2.47-.1.04-.19.08-.29.12-.82.33-1.63.65-2.45.97h0c-5.93,2.37-11.86,4.71-17.77,7.09-.69.27-1.23.26-1.89-.04-1.25-.57-2.5-1.15-3.75-1.73-1.41-2.35-2.24-5.2-2.24-8.27,0-1.01.09-2,.26-2.95,1.76.24,3.52.45,5.28.64,6.76.73,13.54,1.18,20.33,1.31.77.01,1.55.02,2.32.03,1.55.01,3.09.01,4.64-.01.51,0,1.03.05,1.59.37Z"/>
      <path class="cls-1" d="M81.5.57l-15.22,34.14L50.99.57h-7.7v43.54h7.14V14.29l13.34,29.82h4.95l10.49-23.57-2.6-1.56,3.85-2.72c.33-.23.65-.46.97-.68l.57-.41h0c.36-.25.72-.5,1.07-.76.48-.35,1.07-.54,1.67-.54.46,0,.83.1,1.08.17l.13.04c1.05.24,2.12.47,3.2.7V.57h-7.65ZM82,21.8v22.31h7.15v-19.17c-2.12-.96-4.24-1.91-6.38-2.84-.25-.11-.51-.2-.77-.3ZM85.54,16.03c-.43-.09-.85-.33-1.3,0-.74.53-1.48,1.05-2.24,1.59v2.04c.54.21,1.06.38,1.56.6,1.87.81,3.73,1.64,5.59,2.48v-5.93c-1.21-.24-2.41-.51-3.61-.78Z"/>
      <text class="cls-3" transform="translate(41.29 63.25)"><tspan x="0" y="0">AIRWAYS</tspan></text>
      <path class="cls-2" d="M94.16,21.98c0,1.05.06,2.08.19,3.09-1.74-.77-3.47-1.55-5.2-2.33-1.86-.84-3.72-1.67-5.59-2.48-.5-.22-1.02-.39-1.56-.6-.56-.22-1.13-.46-1.73-.82.59-.42,1.17-.83,1.73-1.22.76-.54,1.5-1.06,2.24-1.59.45-.33.87-.09,1.3,0,1.2.27,2.4.54,3.61.78,1.78.38,3.56.72,5.34,1.04-.22,1.34-.33,2.72-.33,4.13Z"/>
      <path class="cls-1" d="M171.4,5.47v26.48c0,3.89-1.18,6.96-3.54,9.21-2.36,2.26-5.46,3.38-9.31,3.38s-6.94-1.12-9.3-3.38c-2.36-2.25-3.54-5.32-3.54-9.21h7.21c.04,1.92.53,3.45,1.47,4.58.94,1.12,2.33,1.69,4.16,1.69s3.24-.58,4.2-1.73c.96-1.14,1.44-2.66,1.44-4.54V10.94l6.07-4.28c.47-.33.85-.74,1.14-1.19Z"/>
    </g>
  </g>
</svg>