<svg width="20" height="20" viewBox="0 0 20 20" fill="none" xmlns="http://www.w3.org/2000/svg">
<path d="M3.33268 1.66666C2.87245 1.66666 2.49935 2.03976 2.49935 2.49999V4.16666H4.16602V3.33332H15.8327V16.6667H4.16602V15.8333H2.49935V17.5C2.49935 17.9602 2.87245 18.3333 3.33268 18.3333H16.666C17.1263 18.3333 17.4993 17.9602 17.4993 17.5V2.49999C17.4993 2.03976 17.1263 1.66666 16.666 1.66666H3.33268ZM7.49935 13.3333C7.49935 11.9526 8.6186 10.8333 9.99935 10.8333C11.3801 10.8333 12.4993 11.9526 12.4993 13.3333H7.49935ZM9.99935 9.99999C9.07885 9.99999 8.33268 9.25382 8.33268 8.33332C8.33268 7.41285 9.07885 6.66666 9.99935 6.66666C10.9198 6.66666 11.666 7.41285 11.666 8.33332C11.666 9.25382 10.9198 9.99999 9.99935 9.99999ZM4.99935 7.49999V5.83332H1.66602V7.49999H4.99935ZM4.99935 9.16666V10.8333H1.66602V9.16666H4.99935ZM4.99935 14.1667V12.5H1.66602V14.1667H4.99935Z" fill="#002AFF"/>
</svg>
