<svg width="13" height="13" viewBox="0 0 13 13" fill="none" xmlns="http://www.w3.org/2000/svg">
<g clip-path="url(#clip0_3846_7237)">
<path d="M8.46791 3.68971C8.7543 3.4034 8.91522 3.01505 8.91527 2.61009C8.91532 2.20514 8.7545 1.81674 8.46818 1.53036C8.18187 1.24398 7.79352 1.08306 7.38856 1.08301C6.9836 1.08296 6.59521 1.24378 6.30883 1.53009L-0.920254 8.7608C-1.04602 8.88619 -1.13903 9.04059 -1.19109 9.21038L-1.90663 11.5677C-1.92063 11.6146 -1.92169 11.6643 -1.90969 11.7117C-1.89769 11.7591 -1.87309 11.8024 -1.83849 11.8369C-1.80389 11.8715 -1.76058 11.896 -1.71317 11.9079C-1.66575 11.9198 -1.61599 11.9187 -1.56917 11.9046L0.788704 11.1896C0.958338 11.138 1.11271 11.0456 1.23829 10.9204L8.46791 3.68971Z" stroke="#002AFF" stroke-width="1.08333" stroke-linecap="round" stroke-linejoin="round"/>
<path d="M5.125 2.70834L7.29167 4.87501" stroke="#002AFF" stroke-width="1.08333" stroke-linecap="round" stroke-linejoin="round"/>
</g>
<defs>
<clipPath id="clip0_3846_7237">
<rect width="13" height="13" fill="white"/>
</clipPath>
</defs>
</svg>
