<svg width="20" height="20" viewBox="0 0 20 20" fill="none" xmlns="http://www.w3.org/2000/svg">
<g clip-path="url(#clip0_3846_7300)">
<path d="M7.0013 10.8334C7.46154 10.8334 7.83464 10.4603 7.83464 10.0001C7.83464 9.53984 7.46154 9.16675 7.0013 9.16675C6.54106 9.16675 6.16797 9.53984 6.16797 10.0001C6.16797 10.4603 6.54106 10.8334 7.0013 10.8334Z" stroke="black" stroke-width="1.66667" stroke-linecap="round" stroke-linejoin="round"/>
<path d="M12.8333 10.8334C13.2936 10.8334 13.6667 10.4603 13.6667 10C13.6667 9.53978 13.2936 9.16669 12.8333 9.16669C12.3731 9.16669 12 9.53978 12 10C12 10.4603 12.3731 10.8334 12.8333 10.8334Z" stroke="black" stroke-width="1.66667" stroke-linecap="round" stroke-linejoin="round"/>
<path d="M1.16536 10.8334C1.6256 10.8334 1.9987 10.4603 1.9987 10.0001C1.9987 9.53984 1.6256 9.16675 1.16536 9.16675C0.705127 9.16675 0.332031 9.53984 0.332031 10.0001C0.332031 10.4603 0.705127 10.8334 1.16536 10.8334Z" stroke="black" stroke-width="1.66667" stroke-linecap="round" stroke-linejoin="round"/>
</g>
<defs>
<clipPath id="clip0_3846_7300">
<rect width="20" height="20" fill="white"/>
</clipPath>
</defs>
</svg>
