<svg width="21" height="21" viewBox="0 0 21 21" fill="none" xmlns="http://www.w3.org/2000/svg">
<path d="M14.817 7.84432C14.3728 4.40617 11.4341 1.75 7.875 1.75C4.009 1.75 0.875 4.884 0.875 8.75C0.875 10.4059 1.44994 11.9274 2.41106 13.126C3.11807 14.0076 3.50029 14.9846 3.50022 16.0178L3.5 19.25H11.375L11.3759 16.625H13.125C14.0915 16.625 14.875 15.8415 14.875 14.875V12.3121L16.5894 11.5777C16.8897 11.4491 16.9158 11.1446 16.7862 10.9407L14.817 7.84432ZM2.625 8.75C2.625 5.8505 4.9755 3.5 7.875 3.5C10.5213 3.5 12.7457 5.46998 13.0813 8.06853L13.1313 8.45479L14.481 10.5771L13.125 11.1579V14.875H9.62649L9.62561 17.5H5.25011L5.25022 16.018C5.25031 14.5838 4.73344 13.2247 3.77631 12.0312C3.03466 11.1063 2.625 9.96179 2.625 8.75ZM18.5093 15.8396L17.0531 14.8688C17.8881 13.6187 18.375 12.1162 18.375 10.5001C18.375 8.88387 17.8881 7.38141 17.0531 6.13132L18.5093 5.1605C19.53 6.68838 20.125 8.52472 20.125 10.5001C20.125 12.4754 19.53 14.3117 18.5093 15.8396Z" fill="white"/>
</svg>
