<svg width="18" height="18" viewBox="0 0 18 18" fill="none" xmlns="http://www.w3.org/2000/svg">
<path d="M12.75 1.5H5.25C4.00736 1.5 3 2.50736 3 3.75V11.25C3 12.4926 4.00736 13.5 5.25 13.5H12.75C13.9926 13.5 15 12.4926 15 11.25V3.75C15 2.50736 13.9926 1.5 12.75 1.5Z" stroke="#0097FF" stroke-width="1.5" stroke-linecap="round" stroke-linejoin="round"/>
<path d="M3 7.5H15" stroke="#0097FF" stroke-width="1.5" stroke-linecap="round" stroke-linejoin="round"/>
<path d="M6.75 1.5V7.5" stroke="#0097FF" stroke-width="1.5" stroke-linecap="round" stroke-linejoin="round"/>
<path d="M11.25 1.5V7.5" stroke="#0097FF" stroke-width="1.5" stroke-linecap="round" stroke-linejoin="round"/>
<path d="M6.375 13.5C6.99632 13.5 7.5 12.9963 7.5 12.375C7.5 11.7537 6.99632 11.25 6.375 11.25C5.75368 11.25 5.25 11.7537 5.25 12.375C5.25 12.9963 5.75368 13.5 6.375 13.5Z" fill="#0097FF"/>
<path d="M11.625 13.5C12.2463 13.5 12.75 12.9963 12.75 12.375C12.75 11.7537 12.2463 11.25 11.625 11.25C11.0037 11.25 10.5 11.7537 10.5 12.375C10.5 12.9963 11.0037 13.5 11.625 13.5Z" fill="#0097FF"/>
<path d="M5.25 15.75L3.75 13.875" stroke="#0097FF" stroke-width="1.5" stroke-linecap="round" stroke-linejoin="round"/>
<path d="M12.75 15.75L14.25 13.875" stroke="#0097FF" stroke-width="1.5" stroke-linecap="round" stroke-linejoin="round"/>
</svg>
