<svg width="18" height="18" viewBox="0 0 18 18" fill="none" xmlns="http://www.w3.org/2000/svg">
<path d="M7.5 16.5V11.5725" stroke="#002AFF" stroke-width="1.35" stroke-linecap="round" stroke-linejoin="round"/>
<path d="M9 8.25H9.0075" stroke="#002AFF" stroke-width="1.35" stroke-linecap="round" stroke-linejoin="round"/>
<path d="M9 5.25H9.0075" stroke="#002AFF" stroke-width="1.35" stroke-linecap="round" stroke-linejoin="round"/>
<path d="M10.5 11.5725V16.5" stroke="#002AFF" stroke-width="1.35" stroke-linecap="round" stroke-linejoin="round"/>
<path d="M11.25 12C10.6009 11.5132 9.81139 11.25 9 11.25C8.18861 11.25 7.39911 11.5132 6.75 12" stroke="#002AFF" stroke-width="1.35" stroke-linecap="round" stroke-linejoin="round"/>
<path d="M12 8.25H12.0075" stroke="#002AFF" stroke-width="1.35" stroke-linecap="round" stroke-linejoin="round"/>
<path d="M12 5.25H12.0075" stroke="#002AFF" stroke-width="1.35" stroke-linecap="round" stroke-linejoin="round"/>
<path d="M6 8.25H6.0075" stroke="#002AFF" stroke-width="1.35" stroke-linecap="round" stroke-linejoin="round"/>
<path d="M6 5.25H6.0075" stroke="#002AFF" stroke-width="1.35" stroke-linecap="round" stroke-linejoin="round"/>
<path d="M13.5 1.5H4.5C3.67157 1.5 3 2.17157 3 3V15C3 15.8284 3.67157 16.5 4.5 16.5H13.5C14.3284 16.5 15 15.8284 15 15V3C15 2.17157 14.3284 1.5 13.5 1.5Z" stroke="#002AFF" stroke-width="1.35" stroke-linecap="round" stroke-linejoin="round"/>
</svg>
