<svg width="18" height="18" viewBox="0 0 18 18" fill="none" xmlns="http://www.w3.org/2000/svg">
<path d="M12 1.5L10.275 3.225C9.86275 3.64559 9.63184 4.21106 9.63184 4.8C9.63184 5.38894 9.86275 5.95441 10.275 6.375L11.625 7.725C12.0456 8.13726 12.6111 8.36818 13.2 8.36818C13.789 8.36818 14.3544 8.13726 14.775 7.725L16.5 6" stroke="#002AFF" stroke-width="1.35" stroke-linecap="round" stroke-linejoin="round"/>
<path d="M11.25 11.25L2.475 2.47498C2.17566 2.76827 1.93786 3.11834 1.77551 3.50469C1.61316 3.89104 1.52954 4.3059 1.52954 4.72498C1.52954 5.14405 1.61316 5.55891 1.77551 5.94526C1.93786 6.33161 2.17566 6.68168 2.475 6.97498L7.95 12.45C8.475 12.975 9.45 12.975 10.05 12.45L11.25 11.25ZM11.25 11.25L16.5 16.5" stroke="#002AFF" stroke-width="1.35" stroke-linecap="round" stroke-linejoin="round"/>
<path d="M1.57495 16.35L6.37495 11.625" stroke="#002AFF" stroke-width="1.35" stroke-linecap="round" stroke-linejoin="round"/>
<path d="M14.25 3.75L9 9" stroke="#002AFF" stroke-width="1.35" stroke-linecap="round" stroke-linejoin="round"/>
</svg>
