<svg width="20" height="20" viewBox="0 0 20 20" fill="none" xmlns="http://www.w3.org/2000/svg">
<path d="M10 17.5C9.71667 17.5 9.45 17.3917 9.25 17.1917L3.18333 11.125C1.55 9.49167 1.55 6.83333 3.18333 5.2C4.76667 3.61667 7.3 3.56667 8.95 5.05L10 6L11.05 5.05C12.7 3.56667 15.2333 3.61667 16.8167 5.2C18.45 6.83333 18.45 9.49167 16.8167 11.125L10.75 17.1917C10.55 17.3917 10.2833 17.5 10 17.5ZM6.125 5.625C5.45833 5.625 4.83333 5.88333 4.36667 6.35C3.38333 7.33333 3.38333 8.93333 4.36667 9.91667L10 15.55L15.6333 9.91667C16.6167 8.93333 16.6167 7.33333 15.6333 6.35C14.6833 5.4 13.1583 5.36667 12.175 6.25833L10.5583 7.71667C10.2417 8 9.75833 8 9.44167 7.71667L7.825 6.25833C7.35833 5.83333 6.75 5.625 6.125 5.625Z" fill="white"/>
</svg>
