<svg width="22" height="20" viewBox="0 0 22 20" fill="none" xmlns="http://www.w3.org/2000/svg">
<path d="M4.5 20C2.01472 20 0 17.9853 0 15.5C0 13.0147 2.01472 11 4.5 11C6.98528 11 9 13.0147 9 15.5C9 17.9853 6.98528 20 4.5 20ZM4.5 18C5.88071 18 7 16.8807 7 15.5C7 14.1193 5.88071 13 4.5 13C3.11929 13 2 14.1193 2 15.5C2 16.8807 3.11929 18 4.5 18ZM17.5 20C15.0147 20 13 17.9853 13 15.5C13 13.0147 15.0147 11 17.5 11C19.9853 11 22 13.0147 22 15.5C22 17.9853 19.9853 20 17.5 20ZM17.5 18C18.8807 18 20 16.8807 20 15.5C20 14.1193 18.8807 13 17.5 13C16.1193 13 15 14.1193 15 15.5C15 16.8807 16.1193 18 17.5 18ZM10.023 9.3054L12 11V17H10V12L7.28117 9.7343C7.18221 9.6661 7.08802 9.588 7 9.5C6.21895 8.71895 6.21895 7.45262 7 6.67157L9.8284 3.84315C10.6095 3.0621 11.8758 3.0621 12.6569 3.84315L14.0711 5.25736C15.1746 6.36086 16.5548 7.01891 17.9884 7.23151L17.978 9.2474C16.0335 9.0218 14.1485 8.16323 12.6569 6.67157L10.023 9.3054ZM15 4C13.8954 4 13 3.10457 13 2C13 0.89543 13.8954 0 15 0C16.1046 0 17 0.89543 17 2C17 3.10457 16.1046 4 15 4Z" fill="currentColor"/>
</svg>
