<svg width="16" height="16" viewBox="0 0 16 16" fill="none" xmlns="http://www.w3.org/2000/svg">
<path d="M14 13.3333H15.3333V14.6666H0.666656V13.3333H1.99999V1.99998C1.99999 1.63179 2.29847 1.33331 2.66666 1.33331H13.3333C13.7015 1.33331 14 1.63179 14 1.99998V13.3333ZM12.6667 13.3333V2.66665H3.33332V13.3333H12.6667ZM5.33332 7.33331H7.33332V8.66665H5.33332V7.33331ZM5.33332 4.66665H7.33332V5.99998H5.33332V4.66665ZM5.33332 9.99998H7.33332V11.3333H5.33332V9.99998ZM8.66666 9.99998H10.6667V11.3333H8.66666V9.99998ZM8.66666 7.33331H10.6667V8.66665H8.66666V7.33331ZM8.66666 4.66665H10.6667V5.99998H8.66666V4.66665Z" fill="black"/>
</svg>
