<svg width="21" height="21" viewBox="0 0 21 21" fill="none" xmlns="http://www.w3.org/2000/svg">
<g clip-path="url(#clip0_58031_104)">
<path d="M18.2874 3.75469C17.9792 2.91138 17.4196 2.18301 16.6841 1.66802C15.9486 1.15302 15.0728 0.876237 14.1749 0.875061H6.82491C5.92706 0.876237 5.05121 1.15302 4.31573 1.66802C3.58025 2.18301 3.0206 2.91138 2.71241 3.75469L0.349913 10.2533C0.117556 10.8934 -0.000900693 11.5691 -8.73931e-05 12.2501V13.1251C0.00147389 13.8013 0.160416 14.4678 0.464157 15.0719C0.767898 15.6761 1.2081 16.2012 1.74991 16.6058C1.74991 16.6128 1.74991 16.6181 1.74991 16.6251V18.3751C1.74991 19.0713 2.02647 19.7389 2.51876 20.2312C3.01104 20.7235 3.67872 21.0001 4.37491 21.0001C5.07111 21.0001 5.73879 20.7235 6.23107 20.2312C6.72335 19.7389 6.99991 19.0713 6.99991 18.3751V17.5001H13.9999V18.3751C13.9999 19.0713 14.2765 19.7389 14.7688 20.2312C15.261 20.7235 15.9287 21.0001 16.6249 21.0001C17.3211 21.0001 17.9888 20.7235 18.4811 20.2312C18.9734 19.7389 19.2499 19.0713 19.2499 18.3751V16.6251C19.2499 16.6181 19.2499 16.6128 19.2499 16.6058C19.7917 16.2012 20.2319 15.6761 20.5357 15.0719C20.8394 14.4678 20.9984 13.8013 20.9999 13.1251V12.2501C21.0008 11.5694 20.8823 10.8939 20.6499 10.2542L18.2874 3.75469ZM4.35916 4.35319C4.54417 3.84758 4.87973 3.41085 5.32062 3.10186C5.76151 2.79286 6.28653 2.62645 6.82491 2.62506H14.1749C14.7136 2.62609 15.239 2.79233 15.6802 3.10136C16.1215 3.41038 16.4573 3.8473 16.6424 4.35319L18.5569 9.62506H2.44204L4.35916 4.35319ZM5.24991 18.3751C5.24991 18.6071 5.15773 18.8297 4.99363 18.9938C4.82954 19.1579 4.60698 19.2501 4.37491 19.2501C4.14285 19.2501 3.92029 19.1579 3.75619 18.9938C3.5921 18.8297 3.49991 18.6071 3.49991 18.3751V17.4126C3.7879 17.471 4.08105 17.5004 4.37491 17.5001H5.24991V18.3751ZM17.4999 18.3751C17.4999 18.6071 17.4077 18.8297 17.2436 18.9938C17.0795 19.1579 16.857 19.2501 16.6249 19.2501C16.3928 19.2501 16.1703 19.1579 16.0062 18.9938C15.8421 18.8297 15.7499 18.6071 15.7499 18.3751V17.5001H16.6249C16.9188 17.5004 17.2119 17.471 17.4999 17.4126V18.3751ZM19.2499 13.1251C19.2499 13.8213 18.9734 14.4889 18.4811 14.9812C17.9888 15.4735 17.3211 15.7501 16.6249 15.7501H4.37491C3.67872 15.7501 3.01104 15.4735 2.51876 14.9812C2.02647 14.4889 1.74991 13.8213 1.74991 13.1251V12.2501C1.75348 11.9554 1.78898 11.662 1.85579 11.3751H3.49991V12.2501C3.49991 12.4821 3.5921 12.7047 3.75619 12.8688C3.92029 13.0329 4.14285 13.1251 4.37491 13.1251C4.60698 13.1251 4.82954 13.0329 4.99363 12.8688C5.15773 12.7047 5.24991 12.4821 5.24991 12.2501V11.3751H15.7499V12.2501C15.7499 12.4821 15.8421 12.7047 16.0062 12.8688C16.1703 13.0329 16.3928 13.1251 16.6249 13.1251C16.857 13.1251 17.0795 13.0329 17.2436 12.8688C17.4077 12.7047 17.4999 12.4821 17.4999 12.2501V11.3751H19.144C19.2109 11.662 19.2464 11.9554 19.2499 12.2501V13.1251Z" fill="currentColor"/>
</g>
<defs>
<clipPath id="clip0_58031_104">
<rect width="21" height="21" fill="white"/>
</clipPath>
</defs>
</svg>
