<svg width="14" height="10" viewBox="0 0 14 10" fill="none" xmlns="http://www.w3.org/2000/svg">
<path d="M6.78796 13.75C3.66388 13.75 1.13132 10.9517 1.13132 7.5C1.13132 4.04822 3.66388 1.25 6.78796 1.25C9.91201 1.25 12.4446 4.04822 12.4446 7.5C12.4446 10.9517 9.91201 13.75 6.78796 13.75ZM6.78796 12.5C9.28724 12.5 11.3133 10.2614 11.3133 7.5C11.3133 4.73857 9.28724 2.5 6.78796 2.5C4.2887 2.5 2.26265 4.73857 2.26265 7.5C2.26265 10.2614 4.2887 12.5 6.78796 12.5ZM6.22377 10L3.82387 7.34837L4.62385 6.46444L6.22377 8.23225L9.42368 4.6967L10.2236 5.58058L6.22377 10Z" fill="#00A67E"/>
</svg>
