<svg width="21" height="21" viewBox="0 0 21 21" fill="none" xmlns="http://www.w3.org/2000/svg">
<g clip-path="url(#clip0_58031_94)">
<path d="M18.375 7.75H15.4813L11.7652 0.367627C11.5393 -0.0463412 11.2061 -0.391811 10.8005 -0.632469C10.395 -0.873127 9.93206 -1.00009 9.46047 -0.999998H9.30122C8.94411 -1.00049 8.59178 -0.917867 8.27212 -0.758664C7.95246 -0.599461 7.67424 -0.368048 7.45947 -0.0827363C7.24471 0.202575 7.09928 0.533955 7.03472 0.88518C6.97015 1.23641 6.98821 1.59784 7.08747 1.94088L8.77447 7.75H6.68847C6.3435 7.75091 6.00178 7.6834 5.68307 7.55138C5.36437 7.41936 5.075 7.22545 4.83172 6.98088L3.59185 5.7375C3.27494 5.42092 2.86542 5.21352 2.42268 5.14539C1.97994 5.07727 1.52702 5.15196 1.12959 5.35863C0.883683 5.4855 0.666319 5.66133 0.490866 5.8753C0.315413 6.08928 0.185578 6.33688 0.109345 6.60288C0.025031 6.88827 -0.000758551 7.18776 0.0335234 7.48336C0.0678053 7.77897 0.161452 8.0646 0.308845 8.32313L1.72109 10.795C2.10448 11.464 2.65749 12.0201 3.32436 12.4073C3.99123 12.7944 4.74838 12.9988 5.51947 13H8.76659L7.30709 16.8911C7.17644 17.2392 7.13208 17.6137 7.1778 17.9826C7.22353 18.3515 7.35799 18.7039 7.56966 19.0095C7.78134 19.3151 8.06392 19.5648 8.39322 19.7373C8.72252 19.9098 9.08872 20 9.46047 20C9.9239 20.0025 10.3796 19.881 10.7803 19.6483C11.1811 19.4155 11.5123 19.0799 11.7398 18.6761L15.281 13H18.375C19.0712 13 19.7388 12.7234 20.2311 12.2312C20.7234 11.7389 21 11.0712 21 10.375C21 9.67881 20.7234 9.01113 20.2311 8.51885C19.7388 8.02656 19.0712 7.75 18.375 7.75ZM8.77184 1.45438C8.74811 1.37228 8.74378 1.2858 8.75921 1.20175C8.77463 1.11769 8.80939 1.03838 8.86073 0.970065C8.91207 0.901751 8.97859 0.846309 9.05504 0.808118C9.13148 0.769926 9.21576 0.75003 9.30122 0.750002H9.46047C9.61304 0.74869 9.76324 0.787737 9.89585 0.863186C10.0285 0.938636 10.1388 1.0478 10.2156 1.17963L13.5231 7.75H10.5962L8.77184 1.45438ZM18.375 11.25H14.7953C14.6469 11.2501 14.5008 11.288 14.371 11.3601C14.2412 11.4322 14.1319 11.5361 14.0533 11.6621L10.2287 17.7941C10.1534 17.9321 10.0423 18.0473 9.90716 18.1275C9.77197 18.2077 9.61767 18.25 9.46047 18.25C9.37152 18.2501 9.28389 18.2286 9.20509 18.1873C9.12629 18.146 9.05868 18.0863 9.00808 18.0131C8.95748 17.94 8.92539 17.8556 8.91457 17.7673C8.90375 17.6791 8.91453 17.5895 8.94597 17.5063L10.8482 12.4313C10.8977 12.2989 10.9143 12.1565 10.8968 12.0163C10.8792 11.8761 10.828 11.7422 10.7474 11.6261C10.6668 11.51 10.5593 11.4151 10.4341 11.3497C10.3089 11.2842 10.1697 11.25 10.0283 11.25H5.51947C5.05737 11.2492 4.60366 11.1265 4.2042 10.8942C3.80473 10.6619 3.47367 10.3283 3.24447 9.927L1.82784 7.45425C1.7982 7.40153 1.7793 7.34345 1.77224 7.28337C1.76518 7.22329 1.7701 7.16242 1.78672 7.10425C1.79549 7.06549 1.81233 7.02901 1.83615 6.9972C1.85998 6.96538 1.89024 6.93895 1.92497 6.91963C1.9789 6.89099 2.03891 6.87569 2.09997 6.875C2.19388 6.87565 2.28389 6.91266 2.35109 6.97825L3.59097 8.21813C3.99684 8.62603 4.4796 8.94935 5.01129 9.16939C5.54299 9.38943 6.11305 9.5018 6.68847 9.5H18.375C18.607 9.5 18.8296 9.59219 18.9937 9.75628C19.1578 9.92038 19.25 10.1429 19.25 10.375C19.25 10.6071 19.1578 10.8296 18.9937 10.9937C18.8296 11.1578 18.607 11.25 18.375 11.25Z" fill="currentColor"/>
</g>
<defs>
<clipPath id="clip0_58031_94">
<rect width="21" height="21" fill="white"/>
</clipPath>
</defs>
</svg>
