<svg width="4" height="20" viewBox="0 0 4 20" fill="none" xmlns="http://www.w3.org/2000/svg">
<path d="M8.31091 15H9.16668V10.8333H10.8333V15H11.6891C11.7991 13.9987 12.3101 13.1721 13.1397 12.2688C13.2331 12.1672 13.8323 11.547 13.9034 11.4584C14.6098 10.5776 15 9.48749 15 8.33332C15 5.5719 12.7614 3.33332 10 3.33332C7.23858 3.33332 5.00001 5.5719 5.00001 8.33332C5.00001 9.48691 5.38979 10.5764 6.09553 11.457C6.16671 11.5458 6.76735 12.1677 6.85963 12.2682C7.68973 13.172 8.20087 13.9987 8.31091 15ZM8.33334 16.6667V17.5H11.6667V16.6667H8.33334ZM4.79497 12.4993C3.88039 11.3581 3.33334 9.90957 3.33334 8.33332C3.33334 4.65142 6.31811 1.66666 10 1.66666C13.6819 1.66666 16.6667 4.65142 16.6667 8.33332C16.6667 9.91041 16.119 11.3596 15.2036 12.5012C14.6867 13.1457 13.3333 14.1667 13.3333 15.4167V17.5C13.3333 18.4205 12.5872 19.1667 11.6667 19.1667H8.33334C7.41287 19.1667 6.66668 18.4205 6.66668 17.5V15.4167C6.66668 14.1667 5.31216 13.1447 4.79497 12.4993Z" fill="black"/>
</svg>
