<svg width="20" height="20" viewBox="0 0 20 20" fill="none" xmlns="http://www.w3.org/2000/svg">
<path d="M1.66666 4.16666L7.49999 1.66666L12.5 4.16666L17.7525 1.91557C17.9641 1.82492 18.209 1.9229 18.2997 2.13441C18.3218 2.18628 18.3333 2.24212 18.3333 2.29855V15.8333L12.5 18.3333L7.49999 15.8333L2.24746 18.0844C2.03594 18.1751 1.791 18.0771 1.70035 17.8656C1.67811 17.8137 1.66666 17.7578 1.66666 17.7014V4.16666ZM13.3333 16.1629L16.6667 14.7343V4.19422L13.3333 5.62279V16.1629ZM11.6667 16.0532V5.61338L8.33332 3.94671V14.3866L11.6667 16.0532ZM6.66666 14.3772V3.83708L3.33332 5.26565V15.8057L6.66666 14.3772Z" fill="white"/>
</svg>
