<svg width="20" height="20" viewBox="0 0 20 20" fill="none" xmlns="http://www.w3.org/2000/svg">
<path d="M10 18.3333C8.94167 16.9167 7.98333 15.5917 7.125 14.3583C6.26667 13.125 5.55 12.0167 4.975 11.0333C4.4 10.05 3.95833 9.16667 3.65 8.38333C3.34167 7.6 3.1875 6.88333 3.1875 6.23333C3.1875 4.26667 3.84167 2.69583 5.15 1.52083C6.45833 0.345833 8.075 -0.241667 10 -0.241667C11.925 -0.241667 13.5417 0.345833 14.85 1.52083C16.1583 2.69583 16.8125 4.26667 16.8125 6.23333C16.8125 6.88333 16.6583 7.6 16.35 8.38333C16.0417 9.16667 15.6 10.05 15.025 11.0333C14.45 12.0167 13.7333 13.125 12.875 14.3583C12.0167 15.5917 11.0583 16.9167 10 18.3333ZM10 8.75C10.6917 8.75 11.2812 8.50625 11.7688 8.01875C12.2563 7.53125 12.5 6.94167 12.5 6.25C12.5 5.55833 12.2563 4.96875 11.7688 4.48125C11.2812 3.99375 10.6917 3.75 10 3.75C9.30833 3.75 8.71875 3.99375 8.23125 4.48125C7.74375 4.96875 7.5 5.55833 7.5 6.25C7.5 6.94167 7.74375 7.53125 8.23125 8.01875C8.71875 8.50625 9.30833 8.75 10 8.75Z" fill="#002AFF"/>
</svg>
