<svg width="16" height="16" viewBox="0 0 16 16" fill="none" xmlns="http://www.w3.org/2000/svg">
<path d="M12.0203 11.0779L14.8755 13.933L13.9327 14.8758L11.0775 12.0207C10.0509 12.842 8.74901 13.3333 7.33301 13.3333C4.02101 13.3333 1.33301 10.6453 1.33301 7.33333C1.33301 4.02133 4.02101 1.33333 7.33301 1.33333C10.645 1.33333 13.333 4.02133 13.333 7.33333C13.333 8.74933 12.8417 10.0513 12.0203 11.0779ZM10.6828 10.5832C11.498 9.74306 11.9997 8.59706 11.9997 7.33333C11.9997 4.75499 9.91134 2.66666 7.33301 2.66666C4.75467 2.66666 2.66634 4.75499 2.66634 7.33333C2.66634 9.91166 4.75467 12 7.33301 12C8.59674 12 9.74274 11.4983 10.5829 10.6831L10.6828 10.5832Z" fill="black"/>
</svg>
