<svg width="21" height="21" viewBox="0 0 21 21" fill="none" xmlns="http://www.w3.org/2000/svg">
<g clip-path="url(#clip0_58031_99)">
<path d="M20.2311 7.93529L13.5942 1.29754C12.7728 0.478529 11.6602 0.0186157 10.5002 0.0186157C9.34025 0.0186157 8.22762 0.478529 7.40621 1.29754L0.769334 7.93529C0.524706 8.17835 0.330758 8.46755 0.198731 8.78613C0.0667047 9.1047 -0.000773236 9.44631 0.000208934 9.79116V18.381C0.000208934 19.0772 0.276771 19.7449 0.769054 20.2372C1.26134 20.7295 1.92902 21.006 2.62521 21.006H18.3752C19.0714 21.006 19.7391 20.7295 20.2314 20.2372C20.7236 19.7449 21.0002 19.0772 21.0002 18.381V9.79116C21.0012 9.44631 20.9337 9.1047 20.8017 8.78613C20.6697 8.46755 20.4757 8.17835 20.2311 7.93529ZM13.1252 19.256H7.87521V15.8138C7.87521 15.1176 8.15177 14.4499 8.64405 13.9576C9.13634 13.4654 9.80402 13.1888 10.5002 13.1888C11.1964 13.1888 11.8641 13.4654 12.3564 13.9576C12.8486 14.4499 13.1252 15.1176 13.1252 15.8138V19.256ZM19.2502 18.381C19.2502 18.6131 19.158 18.8357 18.9939 18.9998C18.8298 19.1639 18.6073 19.256 18.3752 19.256H14.8752V15.8138C14.8752 14.6535 14.4143 13.5407 13.5938 12.7202C12.7733 11.8997 11.6605 11.4388 10.5002 11.4388C9.33989 11.4388 8.22709 11.8997 7.40662 12.7202C6.58615 13.5407 6.12521 14.6535 6.12521 15.8138V19.256H2.62521C2.39314 19.256 2.17058 19.1639 2.00649 18.9998C1.8424 18.8357 1.75021 18.6131 1.75021 18.381V9.79116C1.75102 9.55927 1.84312 9.33703 2.00658 9.17254L8.64346 2.53741C9.1367 2.04648 9.80429 1.77086 10.5002 1.77086C11.1961 1.77086 11.8637 2.04648 12.357 2.53741L18.9938 9.17516C19.1567 9.339 19.2487 9.56018 19.2502 9.79116V18.381Z" fill="currentColor"/>
</g>
<defs>
<clipPath id="clip0_58031_99">
<rect width="21" height="21" fill="white"/>
</clipPath>
</defs>
</svg>
