<svg width="20" height="20" viewBox="0 0 20 20" fill="none" xmlns="http://www.w3.org/2000/svg">
<path d="M10 18.3333C5.39763 18.3333 1.66667 14.6023 1.66667 9.99999C1.66667 5.39761 5.39763 1.66666 10 1.66666C14.6023 1.66666 18.3333 5.39761 18.3333 9.99999C18.3333 14.6023 14.6023 18.3333 10 18.3333ZM10 16.6667C13.6819 16.6667 16.6667 13.6819 16.6667 9.99999C16.6667 6.31809 13.6819 3.33332 10 3.33332C6.3181 3.33332 3.33334 6.31809 3.33334 9.99999C3.33334 13.6819 6.3181 16.6667 10 16.6667ZM10.8333 9.99999H14.1667V11.6667H9.16667V5.83332H10.8333V9.99999Z" fill="black"/>
</svg>
