<svg width="64" height="64" viewBox="0 0 64 64" fill="none" xmlns="http://www.w3.org/2000/svg">
<circle cx="32" cy="32" r="31.5" fill="white" stroke="url(#unity-stroke)"/>
<path d="M17.5 31.8C17.5 21.9 24.8 14 34.2 14C42.7 14 49 20.3 49 28.3C49 34.6 45.6 40.3 40.2 43.2L38.8 50.3C38.6 51.4 37.4 52 36.4 51.4L30.8 48.2H24.6C20.7 48.2 17.5 45 17.5 41.1V31.8Z" fill="#11133A"/>
<path d="M22.8 31.6C22.8 23.6 28.4 17.3 35.9 17.3C42.2 17.3 46.9 22 46.9 27.9C46.9 33 44 37.6 39.5 39.9C35.1 42.1 29.5 42 24 39.8C23.2 39.5 22.8 38.8 22.8 37.9V31.6Z" fill="#191B53"/>
<path d="M27.4 25.2C30.5 22.6 36.3 21.8 42 23.3C43.1 23.6 43.8 24.8 43.5 26L42.4 30.4C42.1 31.7 40.8 32.4 39.6 32C35.3 30.7 31.5 30.9 28.5 32.6C27.4 33.2 26.1 32.6 25.8 31.4L25 28.4C24.7 27.2 25.5 26 27.4 25.2Z" fill="url(#unity-visor)"/>
<path d="M29.3 26.5C32.2 25.1 36.5 24.9 40.9 26" stroke="#DFFBFF" stroke-width="1.7" stroke-linecap="round"/>
<path d="M22.1 39.2C24.8 41.3 28.1 42.5 32.4 42.5" stroke="#FF3FCB" stroke-width="2.4" stroke-linecap="round"/>
<path d="M19.1 30.7C16.2 31.8 14.3 34.5 14.3 37.7C14.3 40.9 16.3 43.6 19.1 44.7V30.7Z" fill="#D81CD8"/>
<defs>
<linearGradient id="unity-stroke" x1="32" y1="0" x2="32" y2="64" gradientUnits="userSpaceOnUse">
<stop stop-color="#002AFF"/>
<stop offset="1" stop-color="#77F2F6"/>
</linearGradient>
<linearGradient id="unity-visor" x1="24.9" y1="27.4" x2="43.6" y2="27.4" gradientUnits="userSpaceOnUse">
<stop stop-color="#77F2F6"/>
<stop offset="0.55" stop-color="#002AFF"/>
<stop offset="1" stop-color="#C800FF"/>
</linearGradient>
</defs>
</svg>
