<svg width="43" height="43" viewBox="0 0 43 43" fill="none" xmlns="http://www.w3.org/2000/svg">
<path d="M22.8362 3.05385C22.8362 2.33462 22.2205 1.72 21.5 1.72C20.7795 1.72 20.1769 2.33462 20.1769 3.05385V5.70846C20.1769 6.42769 20.7795 7.02923 21.5 7.02923C22.2205 7.02923 22.8362 6.42769 22.8362 5.70846V3.05385ZM28.0764 7.91846C27.5655 8.42846 27.5655 9.27846 28.0895 9.78846C28.5873 10.2985 29.4519 10.2985 29.9628 9.77539L31.8493 7.89231C32.3602 7.39539 32.3602 6.51923 31.8493 6.00923C31.3384 5.51231 30.4869 5.51231 29.9759 6.02231L28.0764 7.91846ZM13.0372 9.77539C13.535 10.2985 14.3996 10.2985 14.9105 9.78846C15.4214 9.29154 15.4214 8.41539 14.9236 7.91846L13.0372 6.02231C12.5394 5.52539 11.6747 5.51231 11.1638 6.00923C10.6529 6.51923 10.6529 7.39539 11.1507 7.87923L13.0372 9.77539ZM21.5 9.44846C17.7271 9.44846 14.5961 12.5608 14.5961 16.34C14.5961 20.1192 17.7271 23.2315 21.5 23.2315C25.2729 23.2315 28.3908 20.1192 28.3908 16.34C28.3908 12.5608 25.2729 9.44846 21.5 9.44846ZM34.7969 17.6738C35.5174 17.6738 36.12 17.0592 36.12 16.34C36.12 15.6208 35.5174 15.0192 34.7969 15.0192H32.1375C31.417 15.0192 30.8144 15.6208 30.8144 16.34C30.8144 17.0592 31.417 17.6738 32.1375 17.6738H34.7969ZM8.21624 15.0192C7.48262 15.0192 6.88 15.6208 6.88 16.34C6.88 17.0592 7.48262 17.6738 8.21624 17.6738H10.8625C11.583 17.6738 12.1988 17.0592 12.1988 16.34C12.1988 15.6208 11.583 15.0192 10.8625 15.0192H8.21624ZM29.9497 22.9046C29.4388 22.3946 28.5873 22.4077 28.0764 22.9177C27.5655 23.4146 27.5655 24.2646 28.0895 24.7877L29.989 26.6708C30.4869 27.1808 31.3515 27.1677 31.8624 26.6577C32.3602 26.1477 32.3602 25.2977 31.8493 24.7877L29.9497 22.9046ZM11.1507 24.7746C10.6398 25.2846 10.6267 26.1477 11.1245 26.6446C11.6354 27.1546 12.5132 27.1677 13.011 26.6708L14.9105 24.7877C15.4214 24.2777 15.4214 23.4146 14.9236 22.9177C14.4127 22.4077 13.5481 22.4077 13.0372 22.9046L11.1507 24.7746ZM22.8362 26.9715C22.8362 26.2523 22.2205 25.6508 21.5 25.6508C20.7795 25.6508 20.1769 26.2523 20.1769 26.9715V29.6262C20.1769 30.3454 20.7795 30.96 21.5 30.96C22.2205 30.96 22.8362 30.3454 22.8362 29.6262V26.9715Z" fill="#FFD409"/>
</svg>
