<svg width="29" height="22" viewBox="0 0 29 22" fill="none" xmlns="http://www.w3.org/2000/svg">
<path fill-rule="evenodd" clip-rule="evenodd" d="M14.2231 0.0153222C11.505 0.0153222 8.79314 0.923058 6.58465 2.73809C5.25544 3.83053 4.22813 5.15976 3.51466 6.61531C3.41564 6.60608 3.31928 6.58504 3.21762 6.58504C1.44227 6.58504 0.0128021 7.98512 0.0128021 9.72396V13.6034C0.0128021 15.3423 1.44227 16.7423 3.21762 16.7423C3.31929 16.7423 3.41565 16.7207 3.51466 16.7121C3.6424 16.9714 3.77457 17.2288 3.92353 17.4817C4.50586 18.4997 6.06161 17.6281 5.46085 16.6204C3.00112 12.4475 3.95372 7.15964 7.7222 4.06245C11.4908 0.965181 16.9646 0.965181 20.7332 4.06245C24.5017 7.15964 25.4543 12.4474 22.9946 16.6204L22.968 16.6636L22.9503 16.7068C22.9503 16.7068 21.7557 19.2953 19.4098 19.2953L16.4403 19.2693C16.1618 18.871 15.7161 18.5936 15.184 18.5936H13.2698C12.4115 18.5936 11.7211 19.2721 11.7211 20.1128C11.7211 20.6313 12.057 21.0251 12.8257 21.0251L19.4098 21.0256C22.9301 21.0256 24.4526 17.6406 24.5219 17.4839V17.4747C24.6695 17.224 24.7995 16.9666 24.9263 16.7096C25.0298 16.7188 25.1305 16.7398 25.2371 16.7398C27.0124 16.7398 28.4419 15.3398 28.4419 13.6009V9.72146C28.4419 7.98265 27.0124 6.58255 25.2371 6.58255C25.1345 6.58255 25.0377 6.59916 24.9378 6.61282C24.226 5.15717 23.2018 3.82809 21.8724 2.73556C19.664 0.920537 16.9408 0.0127869 14.2225 0.0127869L14.2231 0.0153222ZM10.3605 5.53023C9.6706 5.48611 9.04041 5.629 8.48973 6.19696C7.02129 7.71117 6.11412 9.77212 6.11412 11.9669C6.11412 13.7773 6.73185 15.8059 7.77246 15.8799C9.25497 15.9856 11.5944 15.032 14.2277 15.032C17.0182 15.032 19.4807 16.1019 20.941 15.8486C21.8261 15.6954 22.3435 13.6233 22.3435 11.9669C22.3435 9.77212 21.4342 7.71117 19.9657 6.19696C18.4972 4.6827 16.4685 6.19696 14.2277 6.19696C12.8272 6.19696 11.5103 5.60417 10.3605 5.53023ZM10.0316 9.26202C10.8503 9.26233 11.5138 9.91223 11.5141 10.7141C11.5138 11.5159 10.8503 12.1658 10.0316 12.1661C9.21302 12.1658 8.54945 11.5159 8.54919 10.7141C8.54945 9.91223 9.21302 9.26233 10.0316 9.26202ZM18.4239 9.26202C19.2426 9.26233 19.9061 9.91223 19.9064 10.7141C19.9061 11.5159 19.2426 12.1658 18.4239 12.1661C17.6053 12.1658 16.9417 11.5159 16.9414 10.7141C16.9417 9.91223 17.6053 9.26233 18.4239 9.26202Z" fill="#2152A3"/>
</svg>
