<svg width="111" height="111" viewBox="0 0 111 111" fill="none" xmlns="http://www.w3.org/2000/svg">
<path d="M57.8135 9.25C56.5365 9.25 55.501 10.2854 55.501 11.5625V55.5H46.251V20.8125C46.251 19.5354 45.2156 18.5 43.9385 18.5C42.6613 18.5 41.626 19.5354 41.626 20.8125V64.75C39.9903 64.75 32.3762 64.75 32.3762 64.75C30.6134 57.2538 26.096 52.9132 21.2538 52.3624C22.5666 55.8071 24.7955 61.3238 28.5194 69.8352C32.4912 78.9127 36.4972 85.6633 41.6424 90.181C46.6122 94.5443 52.9961 97.125 62.4385 97.125C76.4874 97.125 87.876 85.7369 87.876 71.6884V32.375C87.876 31.0979 86.8404 30.0625 85.5635 30.0625C84.2865 30.0625 83.251 31.0979 83.251 32.375V55.5H74.001V18.5C74.001 17.2229 72.9655 16.1875 71.6885 16.1875C70.4115 16.1875 69.376 17.2229 69.376 18.5V55.5H60.126V11.5625C60.126 10.2854 59.0905 9.25 57.8135 9.25ZM97.126 71.6884C97.126 90.8461 81.5957 106.375 62.4385 106.375C51.0679 106.375 42.4212 103.174 35.5393 97.1319C28.8328 91.2434 24.167 82.9637 20.045 73.5431C15.7432 63.7108 13.3665 57.7219 12.0709 54.2212C10.421 49.7636 12.7011 43.5311 18.897 43.0979C24.2386 42.7244 28.7704 44.4578 32.376 47.4465V20.8125C32.376 14.4267 37.5527 9.25 43.9385 9.25C44.7942 9.25 45.6282 9.34296 46.4309 9.51931C47.3957 4.10805 52.1247 0 57.8135 0C62.716 0 66.9058 3.05108 68.5879 7.35796C69.5744 7.08397 70.6146 6.9375 71.6885 6.9375C78.0742 6.9375 83.251 12.1142 83.251 18.5V21.0438C83.9984 20.8921 84.7717 20.8125 85.5635 20.8125C91.9492 20.8125 97.126 25.9892 97.126 32.375V71.6884Z" fill="black"/>
</svg>
